<svg id="visual" viewBox="0 0 900 600" width="900" height="600" xmlns="http://www.w3.org/2000/svg" xmlns:xlink="http://www.w3.org/1999/xlink" version="1.1"><rect x="0" y="0" width="900" height="600" fill="#001220"></rect><path d="M538 600L531 566.7C524 533.3 510 466.7 502 400C494 333.3 492 266.7 507.5 200C523 133.3 556 66.7 572.5 33.3L589 0L900 0L900 33.3C900 66.7 900 133.3 900 200C900 266.7 900 333.3 900 400C900 466.7 900 533.3 900 566.7L900 600Z" fill="#fa7268"></path><path d="M609 600L602.7 566.7C596.3 533.3 583.7 466.7 577.8 400C572 333.3 573 266.7 587.8 200C602.7 133.3 631.3 66.7 645.7 33.3L660 0L900 0L900 33.3C900 66.7 900 133.3 900 200C900 266.7 900 333.3 900 400C900 466.7 900 533.3 900 566.7L900 600Z" fill="#eb5967"></path><path d="M755 600L754.8 566.7C754.7 533.3 754.3 466.7 741 400C727.7 333.3 701.3 266.7 703 200C704.7 133.3 734.3 66.7 749.2 33.3L764 0L900 0L900 33.3C900 66.7 900 133.3 900 200C900 266.7 900 333.3 900 400C900 466.7 900 533.3 900 566.7L900 600Z" fill="#da3f67"></path><path d="M822 600L815 566.7C808 533.3 794 466.7 788.7 400C783.3 333.3 786.7 266.7 792.5 200C798.3 133.3 806.7 66.7 810.8 33.3L815 0L900 0L900 33.3C900 66.7 900 133.3 900 200C900 266.7 900 333.3 900 400C900 466.7 900 533.3 900 566.7L900 600Z" fill="#c62368"></path></svg>